<svg id="Layer_1" data-name="Layer 1" xmlns="http://www.w3.org/2000/svg" viewBox="0 0 136.97 61.79"><defs><style>.cls-1{fill:#231f20;}.cls-2{fill:#fff;}</style></defs><rect class="cls-1" width="61.79" height="61.79" rx="10.08"/><path class="cls-2" d="M88.64,368.94,73.55,384l-3-3,12.08-12.08L70.53,356.86l3-3Zm0,14.95H110v4.27H88.64Z" transform="translate(-59.37 -340.11)"/><path class="cls-2" d="M127.42,386a3.51,3.51,0,0,1,7,0,3.51,3.51,0,0,1-7,0Z" transform="translate(-59.37 -340.11)"/><path class="cls-2" d="M141.28,387.43l1.41-3.52a13.27,13.27,0,0,0,6.25,1.84c1.68,0,2.44-.56,2.44-1.48s-.39-1.29-2.83-1.91c-4.41-1.12-6.88-2.44-6.88-5.7s2.37-5.29,6.65-5.29a13.29,13.29,0,0,1,6.91,1.74l-1.35,3.49a11.27,11.27,0,0,0-5.76-1.61c-1.48,0-2.1.49-2.1,1.31s.36,1.29,2.79,1.91c4.41,1.19,6.88,2.24,6.88,5.63,0,3.82-2.63,5.53-6.88,5.53A14.74,14.74,0,0,1,141.28,387.43Z" transform="translate(-59.37 -340.11)"/><path class="cls-2" d="M160.23,380.48c0-6.15,2.6-9.11,6.29-9.11a6.07,6.07,0,0,1,4.28,1.77V367l4.67-2v24H170.8v-1.58a6.26,6.26,0,0,1-4.51,1.94C163,389.37,160.23,386.8,160.23,380.48ZM170.8,384v-7.24a3.91,3.91,0,0,0-3.06-1.44c-1.81,0-2.77,1.34-2.77,5,0,3.92,1,5.07,2.83,5.07A4,4,0,0,0,170.8,384Z" transform="translate(-59.37 -340.11)"/><path class="cls-2" d="M180.77,367l4.68-2v9.58c0,1.22-.1,3.79-.1,4.48.43-.69,1.54-2.37,2.27-3.43l3.06-3.91h5.23l-5,6,5.4,11.26h-5l-3.66-7.37-2.23,2.73V389h-4.68Z" transform="translate(-59.37 -340.11)"/></svg>